<mxfile host="app.diagrams.net" modified="2023-05-25T03:48:16.188Z" agent="Mozilla/5.0 (Macintosh; Intel Mac OS X 10_15_7) AppleWebKit/537.36 (KHTML, like Gecko) Chrome/113.0.0.0 Safari/537.36" etag="1Cu3PdSwuqDfkR7Fpqyx" version="21.3.2" type="github">
  <diagram name="第 1 页" id="KHBCPCB4xP20FW_kZVGZ">
    <mxGraphModel dx="1005" dy="647" grid="0" gridSize="10" guides="1" tooltips="1" connect="1" arrows="1" fold="1" page="1" pageScale="1" pageWidth="827" pageHeight="1169" math="0" shadow="0">
      <root>
        <mxCell id="0" />
        <mxCell id="1" parent="0" />
        <mxCell id="m37PcuWIk3j7SGrPWQn9-7" value="" style="edgeStyle=orthogonalEdgeStyle;rounded=0;orthogonalLoop=1;jettySize=auto;html=1;" edge="1" parent="1" source="m37PcuWIk3j7SGrPWQn9-1" target="m37PcuWIk3j7SGrPWQn9-6">
          <mxGeometry relative="1" as="geometry" />
        </mxCell>
        <mxCell id="m37PcuWIk3j7SGrPWQn9-1" value="离线模型" style="rounded=0;whiteSpace=wrap;html=1;" vertex="1" parent="1">
          <mxGeometry x="190" y="380" width="120" height="60" as="geometry" />
        </mxCell>
        <mxCell id="m37PcuWIk3j7SGrPWQn9-12" style="edgeStyle=orthogonalEdgeStyle;rounded=0;orthogonalLoop=1;jettySize=auto;html=1;exitX=0.5;exitY=0;exitDx=0;exitDy=0;" edge="1" parent="1" source="m37PcuWIk3j7SGrPWQn9-2" target="m37PcuWIk3j7SGrPWQn9-10">
          <mxGeometry relative="1" as="geometry" />
        </mxCell>
        <mxCell id="m37PcuWIk3j7SGrPWQn9-2" value="线上embedding" style="rounded=0;whiteSpace=wrap;html=1;" vertex="1" parent="1">
          <mxGeometry x="370" y="320" width="120" height="30" as="geometry" />
        </mxCell>
        <mxCell id="m37PcuWIk3j7SGrPWQn9-4" style="edgeStyle=orthogonalEdgeStyle;rounded=0;orthogonalLoop=1;jettySize=auto;html=1;entryX=0.5;entryY=1;entryDx=0;entryDy=0;" edge="1" parent="1" source="m37PcuWIk3j7SGrPWQn9-3" target="m37PcuWIk3j7SGrPWQn9-1">
          <mxGeometry relative="1" as="geometry" />
        </mxCell>
        <mxCell id="m37PcuWIk3j7SGrPWQn9-5" style="edgeStyle=orthogonalEdgeStyle;rounded=0;orthogonalLoop=1;jettySize=auto;html=1;entryX=0.5;entryY=1;entryDx=0;entryDy=0;" edge="1" parent="1" source="m37PcuWIk3j7SGrPWQn9-3" target="m37PcuWIk3j7SGrPWQn9-2">
          <mxGeometry relative="1" as="geometry" />
        </mxCell>
        <mxCell id="m37PcuWIk3j7SGrPWQn9-3" value="用户请求" style="rounded=0;whiteSpace=wrap;html=1;" vertex="1" parent="1">
          <mxGeometry x="301" y="490" width="101" height="41" as="geometry" />
        </mxCell>
        <mxCell id="m37PcuWIk3j7SGrPWQn9-9" value="" style="edgeStyle=orthogonalEdgeStyle;rounded=0;orthogonalLoop=1;jettySize=auto;html=1;entryX=0.5;entryY=1;entryDx=0;entryDy=0;exitX=0.5;exitY=0;exitDx=0;exitDy=0;" edge="1" parent="1" source="m37PcuWIk3j7SGrPWQn9-6" target="m37PcuWIk3j7SGrPWQn9-10">
          <mxGeometry relative="1" as="geometry">
            <mxPoint x="330" y="210" as="targetPoint" />
          </mxGeometry>
        </mxCell>
        <mxCell id="m37PcuWIk3j7SGrPWQn9-6" value="离线embedding" style="whiteSpace=wrap;html=1;rounded=0;" vertex="1" parent="1">
          <mxGeometry x="190" y="320" width="120" height="30" as="geometry" />
        </mxCell>
        <mxCell id="m37PcuWIk3j7SGrPWQn9-15" value="" style="edgeStyle=orthogonalEdgeStyle;rounded=0;orthogonalLoop=1;jettySize=auto;html=1;" edge="1" parent="1" source="m37PcuWIk3j7SGrPWQn9-10" target="m37PcuWIk3j7SGrPWQn9-14">
          <mxGeometry relative="1" as="geometry" />
        </mxCell>
        <mxCell id="m37PcuWIk3j7SGrPWQn9-10" value="+" style="ellipse;whiteSpace=wrap;html=1;aspect=fixed;" vertex="1" parent="1">
          <mxGeometry x="330" y="250" width="20" height="20" as="geometry" />
        </mxCell>
        <mxCell id="m37PcuWIk3j7SGrPWQn9-13" value="concat" style="text;html=1;align=center;verticalAlign=middle;resizable=0;points=[];autosize=1;strokeColor=none;fillColor=none;" vertex="1" parent="1">
          <mxGeometry x="330" y="268" width="60" height="30" as="geometry" />
        </mxCell>
        <mxCell id="m37PcuWIk3j7SGrPWQn9-17" value="" style="edgeStyle=orthogonalEdgeStyle;rounded=0;orthogonalLoop=1;jettySize=auto;html=1;" edge="1" parent="1" source="m37PcuWIk3j7SGrPWQn9-14" target="m37PcuWIk3j7SGrPWQn9-16">
          <mxGeometry relative="1" as="geometry" />
        </mxCell>
        <mxCell id="m37PcuWIk3j7SGrPWQn9-14" value="fnn" style="whiteSpace=wrap;html=1;" vertex="1" parent="1">
          <mxGeometry x="280" y="180" width="120" height="40" as="geometry" />
        </mxCell>
        <mxCell id="m37PcuWIk3j7SGrPWQn9-20" value="" style="edgeStyle=orthogonalEdgeStyle;rounded=0;orthogonalLoop=1;jettySize=auto;html=1;" edge="1" parent="1" source="m37PcuWIk3j7SGrPWQn9-16">
          <mxGeometry relative="1" as="geometry">
            <mxPoint x="340" y="80" as="targetPoint" />
          </mxGeometry>
        </mxCell>
        <mxCell id="m37PcuWIk3j7SGrPWQn9-16" value="公式超参" style="whiteSpace=wrap;html=1;" vertex="1" parent="1">
          <mxGeometry x="280" y="110" width="120" height="40" as="geometry" />
        </mxCell>
        <mxCell id="m37PcuWIk3j7SGrPWQn9-23" style="edgeStyle=orthogonalEdgeStyle;rounded=0;orthogonalLoop=1;jettySize=auto;html=1;exitX=0.5;exitY=1;exitDx=0;exitDy=0;entryX=1;entryY=0.5;entryDx=0;entryDy=0;" edge="1" parent="1" source="m37PcuWIk3j7SGrPWQn9-22" target="m37PcuWIk3j7SGrPWQn9-2">
          <mxGeometry relative="1" as="geometry" />
        </mxCell>
        <mxCell id="m37PcuWIk3j7SGrPWQn9-22" value="反馈更新" style="rounded=0;whiteSpace=wrap;html=1;" vertex="1" parent="1">
          <mxGeometry x="510" y="260" width="70" height="32" as="geometry" />
        </mxCell>
        <mxCell id="m37PcuWIk3j7SGrPWQn9-24" value="" style="endArrow=classic;html=1;rounded=0;entryX=0.5;entryY=0;entryDx=0;entryDy=0;" edge="1" parent="1" target="m37PcuWIk3j7SGrPWQn9-22">
          <mxGeometry width="50" height="50" relative="1" as="geometry">
            <mxPoint x="545" y="210" as="sourcePoint" />
            <mxPoint x="560" y="150" as="targetPoint" />
          </mxGeometry>
        </mxCell>
      </root>
    </mxGraphModel>
  </diagram>
</mxfile>
